<?xml version="1.0" encoding="iso-8859-1"?>
<!-- Generator: Adobe Illustrator 19.0.0, SVG Export Plug-In . SVG Version: 6.00 Build 0)  -->
<svg version="1.1" id="Layer_1" xmlns="http://www.w3.org/2000/svg" xmlns:xlink="http://www.w3.org/1999/xlink" x="0px" y="0px"
	 viewBox="0 0 491.52 491.52" style="enable-background:new 0 0 491.52 491.52;" xml:space="preserve">
<rect x="171.977" y="23.037" transform="matrix(-0.7071 -0.7071 0.7071 -0.7071 163.8029 540.1132)" style="fill:#FCD462;" width="43.571" height="426.191"/>
<rect x="202.788" y="53.849" transform="matrix(-0.7071 -0.7071 0.7071 -0.7071 194.6123 614.4999)" style="fill:#F6C358;" width="43.571" height="426.191"/>
<rect x="233.6" y="84.686" transform="matrix(-0.7071 -0.7071 0.7071 -0.7071 225.4071 688.9288)" style="fill:#DC8744;" width="43.571" height="426.191"/>
<rect x="320.003" y="91.857" transform="matrix(-0.7071 -0.7071 0.7071 -0.7071 582.7925 453.7094)" style="fill:#FFFFFF;" width="130.719" height="28.595"/>
<path style="fill:#E56353;" d="M441.691,142.263l-92.434-92.434l48.847-48.847c11.46-11.46,103.894,80.974,92.434,92.434
	L441.691,142.263z"/>
<path style="fill:#FCD462;" d="M51.15,481.333l68.949-17.478l-92.433-92.433L10.187,440.37c9.445,2.684,18.36,7.732,25.795,15.168
	C43.418,462.974,48.466,471.888,51.15,481.333z"/>
<path style="fill:#64798A;" d="M12.183,491.211l38.967-9.878c-2.684-9.445-7.732-18.36-15.168-25.795
	c-7.435-7.436-16.35-12.485-25.795-15.168l-9.878,38.967C-1.511,486.516,5.004,493.031,12.183,491.211z"/>
<g>
</g>
<g>
</g>
<g>
</g>
<g>
</g>
<g>
</g>
<g>
</g>
<g>
</g>
<g>
</g>
<g>
</g>
<g>
</g>
<g>
</g>
<g>
</g>
<g>
</g>
<g>
</g>
<g>
</g>
</svg>
