<?xml version="1.0" encoding="UTF-8"?>
<svg xmlns="http://www.w3.org/2000/svg" xmlns:xlink="http://www.w3.org/1999/xlink" width="393.216003pt" height="393.216003pt" viewBox="0 0 393.216003 393.216003" version="1.1">
<g id="surface1">
<path style=" stroke:none;fill-rule:nonzero;fill:rgb(83%,83%,83%);fill-opacity:1;" d="M 46.789062 321.773438 L 22.144531 297.128906 L 263.230469 56.039062 L 287.878906 80.6875 Z M 46.789062 321.773438 "/>
<path style=" stroke:none;fill-rule:nonzero;fill:rgb(78%,78%,78%);fill-opacity:1;" d="M 71.4375 346.425781 L 46.789062 321.777344 L 287.878906 80.691406 L 312.527344 105.335938 Z M 71.4375 346.425781 "/>
<path style=" stroke:none;fill-rule:nonzero;fill:rgb(60%,60%,60%);fill-opacity:1;" d="M 96.089844 371.09375 L 71.441406 346.449219 L 312.527344 105.359375 L 337.175781 130.007812 Z M 96.089844 371.09375 "/>
<path style=" stroke:none;fill-rule:nonzero;fill:rgb(100%,100%,100%);fill-opacity:1;" d="M 337.175781 129.988281 L 263.230469 56.042969 L 279.40625 39.867188 L 353.351562 113.8125 Z M 337.175781 129.988281 "/>
<path style=" stroke:none;fill-rule:nonzero;fill:rgb(53%,53%,53%);fill-opacity:1;" d="M 353.351562 113.808594 L 279.40625 39.863281 L 318.484375 0.785156 C 327.652344 -8.382812 401.597656 65.566406 392.429688 74.734375 Z M 353.351562 113.808594 "/>
<path style=" stroke:none;fill-rule:nonzero;fill:rgb(83%,83%,83%);fill-opacity:1;" d="M 40.921875 385.066406 L 96.078125 371.085938 L 22.132812 297.136719 L 8.148438 352.296875 C 15.707031 354.441406 22.835938 358.480469 28.785156 364.429688 C 34.734375 370.378906 38.773438 377.511719 40.921875 385.066406 Z M 40.921875 385.066406 "/>
<path style=" stroke:none;fill-rule:nonzero;fill:rgb(46%,46%,46%);fill-opacity:1;" d="M 9.746094 392.96875 L 40.921875 385.066406 C 38.773438 377.511719 34.734375 370.378906 28.785156 364.429688 C 22.835938 358.480469 15.707031 354.441406 8.148438 352.296875 L 0.246094 383.46875 C -1.207031 389.210938 4.003906 394.425781 9.746094 392.96875 Z M 9.746094 392.96875 "/>
</g>
</svg>
